<?xml version="1.0" encoding="iso-8859-1"?>
<!-- Generator: Adobe Illustrator 18.1.1, SVG Export Plug-In . SVG Version: 6.00 Build 0)  -->
<svg version="1.1" id="Layer_1" xmlns="http://www.w3.org/2000/svg" xmlns:xlink="http://www.w3.org/1999/xlink" x="0px" y="0px"
	 viewBox="0 24.706 120 71" style="enable-background:new 0 24.706 120 71;" xml:space="preserve">
<path d="M84.706,24.706h-63.53c-3.898,0-7.058,3.16-7.058,7.059s3.16,7.059,7.059,7.059h44.439
	c4.859-4.148,11.161-6.657,18.051-6.657C99.039,32.167,111.5,44.628,111.5,60S99.039,87.833,83.667,87.833S55.834,75.372,55.834,60
	c0-2.439,0.317-4.804,0.906-7.058H7.059C3.159,52.94,0,56.101,0,60s3.16,7.059,7.059,7.059h33.294c3.899,0,7.059,3.16,7.059,7.059
	s-3.16,7.059-7.059,7.059H28.294c-3.899,0-7.059,3.16-7.059,7.059c0,3.899,3.16,7.059,7.059,7.059h56.412
	C104.198,95.294,120,79.492,120,60S104.198,24.706,84.706,24.706z"/>
</svg>
