<?xml version="1.0" encoding="UTF-8"?><!DOCTYPE svg PUBLIC "-//W3C//DTD SVG 1.1//EN" "http://www.w3.org/Graphics/SVG/1.1/DTD/svg11.dtd"><svg xmlns="http://www.w3.org/2000/svg"><symbol id="icon-close" viewBox="145.1 -20.7 14 14"><path d="M160.1-19.7l-2.1-2.1-5.9 5.9-6-5.9-2.1 2.1 5.9 6-5.9 5.9 2.1 2.1 6-5.9 5.9 5.9 2.1-2.1-5.9-5.9"/></symbol><symbol id="icon-collapse" viewBox="0 0 60 60"><path d="M12 0v12H0M60 12H48V0M48 60V48h12M0 48h12v12M40 20v20H20V20h20m6-6H14v32h32V14z"/></symbol><symbol id="icon-expand" viewBox="0 0 60 60"><path d="M8 20V8h12M40 8h12v12M52 40v12H40M20 52H8V40"/><path d="M6 6h48v48H6V6M0 0v60h60V0H0z"/></symbol><symbol id="icon-home" viewBox="-60 0 180 120"><path d="M120 120H0l-60-60L0 0h120L60 60"/></symbol><symbol id="icon-logotype" viewBox="0 24.706 120 71"><path d="M84.706 24.706h-63.53c-3.898 0-7.058 3.16-7.058 7.06s3.16 7.058 7.06 7.058h44.438c4.86-4.148 11.16-6.657 18.05-6.657C99.04 32.167 111.5 44.627 111.5 60S99.04 87.833 83.667 87.833 55.834 75.373 55.834 60c0-2.44.317-4.804.906-7.058H7.06C3.16 52.94 0 56.102 0 60s3.16 7.06 7.06 7.06h33.293c3.9 0 7.06 3.16 7.06 7.058s-3.16 7.06-7.06 7.06h-12.06c-3.898 0-7.058 3.16-7.058 7.058 0 3.9 3.16 7.06 7.06 7.06h56.41C104.2 95.293 120 79.49 120 60s-15.802-35.294-35.294-35.294z"/></symbol></svg>