<svg xmlns="http://www.w3.org/2000/svg" viewBox="0 24.706 120 71"><path d="M84.706 24.706h-63.53c-3.898 0-7.058 3.16-7.058 7.06s3.16 7.058 7.06 7.058h44.438c4.86-4.148 11.16-6.657 18.05-6.657C99.04 32.167 111.5 44.627 111.5 60S99.04 87.833 83.667 87.833 55.834 75.373 55.834 60c0-2.44.317-4.804.906-7.058H7.06C3.16 52.94 0 56.102 0 60s3.16 7.06 7.06 7.06h33.293c3.9 0 7.06 3.16 7.06 7.058s-3.16 7.06-7.06 7.06h-12.06c-3.898 0-7.058 3.16-7.058 7.058 0 3.9 3.16 7.06 7.06 7.06h56.41C104.2 95.293 120 79.49 120 60s-15.802-35.294-35.294-35.294z"/></svg>